<svg xmlns="http://www.w3.org/2000/svg" width="800" height="600" viewBox="0 0 800 600"><rect x="0" y="0" width="800" height="600" fill="white"/><g transform="translate(0,0)"><rect x="70" y="30" width="710" height="510" stroke="black" stroke-width="1" fill="none"/><line x1="102.273" y1="540" x2="102.273" y2="546" stroke="black" stroke-width="1" stroke-linecap="round" fill="none"/><text x="102.273" y="560" fill="black" font-family="sans-serif" font-size="12" text-anchor="middle">0</text><line x1="205" y1="540" x2="205" y2="546" stroke="black" stroke-width="1" stroke-linecap="round" fill="none"/><text x="205" y="560" fill="black" font-family="sans-serif" font-size="12" text-anchor="middle">1</text><line x1="307.727" y1="540" x2="307.727" y2="546" stroke="black" stroke-width="1" stroke-linecap="round" fill="none"/><text x="307.727" y="560" fill="black" font-family="sans-serif" font-size="12" text-anchor="middle">2</text><line x1="410.455" y1="540" x2="410.455" y2="546" stroke="black" stroke-width="1" stroke-linecap="round" fill="none"/><text x="410.455" y="560" fill="black" font-family="sans-serif" font-size="12" text-anchor="middle">3</text><line x1="513.182" y1="540" x2="513.182" y2="546" stroke="black" stroke-width="1" stroke-linecap="round" fill="none"/><text x="513.182" y="560" fill="black" font-family="sans-serif" font-size="12" text-anchor="middle">4</text><line x1="615.909" y1="540" x2="615.909" y2="546" stroke="black" stroke-width="1" stroke-linecap="round" fill="none"/><text x="615.909" y="560" fill="black" font-family="sans-serif" font-size="12" text-anchor="middle">5</text><line x1="718.636" y1="540" x2="718.636" y2="546" stroke="black" stroke-width="1" stroke-linecap="round" fill="none"/><text x="718.636" y="560" fill="black" font-family="sans-serif" font-size="12" text-anchor="middle">6</text><line x1="64" y1="516.818" x2="70" y2="516.818" stroke="black" stroke-width="1" stroke-linecap="round" fill="none"/><text x="60" y="520.818" fill="black" font-family="sans-serif" font-size="12" text-anchor="end">-1</text><line x1="64" y1="400.909" x2="70" y2="400.909" stroke="black" stroke-width="1" stroke-linecap="round" fill="none"/><text x="60" y="404.909" fill="black" font-family="sans-serif" font-size="12" text-anchor="end">-0.5</text><line x1="64" y1="285" x2="70" y2="285" stroke="black" stroke-width="1" stroke-linecap="round" fill="none"/><text x="60" y="289" fill="black" font-family="sans-serif" font-size="12" text-anchor="end">0</text><line x1="64" y1="169.091" x2="70" y2="169.091" stroke="black" stroke-width="1" stroke-linecap="round" fill="none"/><text x="60" y="173.091" fill="black" font-family="sans-serif" font-size="12" text-anchor="end">0.5</text><line x1="64" y1="53.1818" x2="70" y2="53.1818" stroke="black" stroke-width="1" stroke-linecap="round" fill="none"/><text x="60" y="57.1818" fill="black" font-family="sans-serif" font-size="12" text-anchor="end">1</text><text x="425" y="21" fill="black" font-family="sans-serif" font-size="14" text-anchor="middle">catplot: Traditional std::vector approach</text><text x="425" y="580" fill="black" font-family="sans-serif" font-size="13" text-anchor="middle">x (radians)</text><text x="20" y="285" fill="black" font-family="sans-serif" font-size="13" text-anchor="middle" transform="rotate(-90 20 285)">f(x)</text><polyline points="102.273,285 108.727,270.444 115.182,255.945 121.636,241.562 128.091,227.349 134.545,213.364 141,199.662 147.455,186.297 153.909,173.321 160.364,160.786 166.818,148.741 173.273,137.234 179.727,126.31 186.182,116.012 192.636,106.381 199.091,97.4552 205.545,89.2694 212,81.8562 218.455,75.2446 224.909,69.4609 231.364,64.5278 237.818,60.4648 244.273,57.288 250.727,55.0098 257.182,53.6393 263.636,53.1818 270.091,53.6393 276.545,55.0098 283,57.288 289.455,60.4648 295.909,64.5278 302.364,69.4609 308.818,75.2446 315.273,81.8562 321.727,89.2694 328.182,97.4552 334.636,106.381 341.091,116.012 347.545,126.31 354,137.234 360.455,148.741 366.909,160.786 373.364,173.321 379.818,186.297 386.273,199.662 392.727,213.364 399.182,227.349 405.636,241.562 412.091,255.945 418.545,270.444 425,285 431.455,299.556 437.909,314.055 444.364,328.438 450.818,342.651 457.273,356.636 463.727,370.338 470.182,383.703 476.636,396.679 483.091,409.214 489.545,421.259 496,432.766 502.455,443.69 508.909,453.988 515.364,463.619 521.818,472.545 528.273,480.731 534.727,488.144 541.182,494.755 547.636,500.539 554.091,505.472 560.545,509.535 567,512.712 573.455,514.99 579.909,516.361 586.364,516.818 592.818,516.361 599.273,514.99 605.727,512.712 612.182,509.535 618.636,505.472 625.091,500.539 631.545,494.755 638,488.144 644.455,480.731 650.909,472.545 657.364,463.619 663.818,453.988 670.273,443.69 676.727,432.766 683.182,421.259 689.636,409.214 696.091,396.679 702.545,383.703 709,370.338 715.455,356.636 721.909,342.651 728.364,328.438 734.818,314.055 741.273,299.556 747.727,285" stroke="rgba(0,0,255,1)" stroke-width="2" fill="none" stroke-linecap="round" stroke-linejoin="round"/><polyline points="102.273,53.1818 108.727,53.6393 115.182,55.0098 121.636,57.288 128.091,60.4648 134.545,64.5278 141,69.4609 147.455,75.2446 153.909,81.8562 160.364,89.2694 166.818,97.4552 173.273,106.381 179.727,116.012 186.182,126.31 192.636,137.234 199.091,148.741 205.545,160.786 212,173.321 218.455,186.297 224.909,199.662 231.364,213.364 237.818,227.349 244.273,241.562 250.727,255.945 257.182,270.444 263.636,285 270.091,299.556 276.545,314.055 283,328.438 289.455,342.651 295.909,356.636 302.364,370.338 308.818,383.703 315.273,396.679 321.727,409.214 328.182,421.259 334.636,432.766 341.091,443.69 347.545,453.988 354,463.619 360.455,472.545 366.909,480.731 373.364,488.144 379.818,494.755 386.273,500.539 392.727,505.472 399.182,509.535 405.636,512.712 412.091,514.99 418.545,516.361 425,516.818 431.455,516.361 437.909,514.99 444.364,512.712 450.818,509.535 457.273,505.472 463.727,500.539 470.182,494.755 476.636,488.144 483.091,480.731 489.545,472.545 496,463.619 502.455,453.988 508.909,443.69 515.364,432.766 521.818,421.259 528.273,409.214 534.727,396.679 541.182,383.703 547.636,370.338 554.091,356.636 560.545,342.651 567,328.438 573.455,314.055 579.909,299.556 586.364,285 592.818,270.444 599.273,255.945 605.727,241.562 612.182,227.349 618.636,213.364 625.091,199.662 631.545,186.297 638,173.321 644.455,160.786 650.909,148.741 657.364,137.234 663.818,126.31 670.273,116.012 676.727,106.381 683.182,97.4552 689.636,89.2694 696.091,81.8562 702.545,75.2446 709,69.4609 715.455,64.5278 721.909,60.4648 728.364,57.288 734.818,55.0098 741.273,53.6393 747.727,53.1818" stroke="rgba(255,0,0,1)" stroke-width="2" fill="none" stroke-linecap="round" stroke-linejoin="round"/><circle cx="102.273" cy="285" r="6" fill="rgba(0,255,0,1)"/><circle cx="263.555" cy="53.1818" r="6" fill="rgba(0,255,0,1)"/><circle cx="424.836" cy="285" r="6" fill="rgba(0,255,0,1)"/><circle cx="586.118" cy="516.818" r="6" fill="rgba(0,255,0,1)"/><circle cx="747.4" cy="285" r="6" fill="rgba(0,255,0,1)"/><rect x="640" y="40" width="130" height="70" stroke="black" stroke-width="1" fill="rgba(255,255,255,0.8)"/><line x1="650" y1="52" x2="670" y2="52" stroke="rgba(0,0,255,1)" stroke-width="3" stroke-linecap="round" fill="none"/><circle cx="660" cy="52" r="3" fill="rgba(0,0,255,1)"/><text x="680" y="56" fill="black" font-family="sans-serif" font-size="12" text-anchor="start">sin (std::vector)</text><line x1="650" y1="70" x2="670" y2="70" stroke="rgba(255,0,0,1)" stroke-width="3" stroke-linecap="round" fill="none"/><circle cx="660" cy="70" r="3" fill="rgba(255,0,0,1)"/><text x="680" y="74" fill="black" font-family="sans-serif" font-size="12" text-anchor="start">cos (std::vector)</text><line x1="650" y1="88" x2="670" y2="88" stroke="rgba(0,255,0,1)" stroke-width="3" stroke-linecap="round" fill="none"/><circle cx="660" cy="88" r="3" fill="rgba(0,255,0,1)"/><text x="680" y="92" fill="black" font-family="sans-serif" font-size="12" text-anchor="start">key points (std::vector)</text><line x1="102.273" y1="30" x2="102.273" y2="540" stroke="rgba(0,0,0,0.1)" stroke-width="1" stroke-linecap="butt" fill="none"/><line x1="205" y1="30" x2="205" y2="540" stroke="rgba(0,0,0,0.1)" stroke-width="1" stroke-linecap="butt" fill="none"/><line x1="307.727" y1="30" x2="307.727" y2="540" stroke="rgba(0,0,0,0.1)" stroke-width="1" stroke-linecap="butt" fill="none"/><line x1="410.455" y1="30" x2="410.455" y2="540" stroke="rgba(0,0,0,0.1)" stroke-width="1" stroke-linecap="butt" fill="none"/><line x1="513.182" y1="30" x2="513.182" y2="540" stroke="rgba(0,0,0,0.1)" stroke-width="1" stroke-linecap="butt" fill="none"/><line x1="615.909" y1="30" x2="615.909" y2="540" stroke="rgba(0,0,0,0.1)" stroke-width="1" stroke-linecap="butt" fill="none"/><line x1="718.636" y1="30" x2="718.636" y2="540" stroke="rgba(0,0,0,0.1)" stroke-width="1" stroke-linecap="butt" fill="none"/><line x1="70" y1="516.818" x2="780" y2="516.818" stroke="rgba(0,0,0,0.1)" stroke-width="1" stroke-linecap="butt" fill="none"/><line x1="70" y1="400.909" x2="780" y2="400.909" stroke="rgba(0,0,0,0.1)" stroke-width="1" stroke-linecap="butt" fill="none"/><line x1="70" y1="285" x2="780" y2="285" stroke="rgba(0,0,0,0.1)" stroke-width="1" stroke-linecap="butt" fill="none"/><line x1="70" y1="169.091" x2="780" y2="169.091" stroke="rgba(0,0,0,0.1)" stroke-width="1" stroke-linecap="butt" fill="none"/><line x1="70" y1="53.1818" x2="780" y2="53.1818" stroke="rgba(0,0,0,0.1)" stroke-width="1" stroke-linecap="butt" fill="none"/></g></svg>