<svg xmlns="http://www.w3.org/2000/svg" width="1000" height="800" viewBox="0 0 1000 800"><rect x="0" y="0" width="1000" height="800" fill="white"/><g transform="translate(0,0)"><rect x="70" y="30" width="410" height="310" stroke="black" stroke-width="1" fill="none"/><line x1="88.6364" y1="340" x2="88.6364" y2="346" stroke="black" stroke-width="1" stroke-linecap="round" fill="none"/><text x="88.6364" y="360" fill="black" font-family="sans-serif" font-size="12" text-anchor="middle">0</text><line x1="147.958" y1="340" x2="147.958" y2="346" stroke="black" stroke-width="1" stroke-linecap="round" fill="none"/><text x="147.958" y="360" fill="black" font-family="sans-serif" font-size="12" text-anchor="middle">2</text><line x1="207.279" y1="340" x2="207.279" y2="346" stroke="black" stroke-width="1" stroke-linecap="round" fill="none"/><text x="207.279" y="360" fill="black" font-family="sans-serif" font-size="12" text-anchor="middle">4</text><line x1="266.601" y1="340" x2="266.601" y2="346" stroke="black" stroke-width="1" stroke-linecap="round" fill="none"/><text x="266.601" y="360" fill="black" font-family="sans-serif" font-size="12" text-anchor="middle">6</text><line x1="325.922" y1="340" x2="325.922" y2="346" stroke="black" stroke-width="1" stroke-linecap="round" fill="none"/><text x="325.922" y="360" fill="black" font-family="sans-serif" font-size="12" text-anchor="middle">8</text><line x1="385.243" y1="340" x2="385.243" y2="346" stroke="black" stroke-width="1" stroke-linecap="round" fill="none"/><text x="385.243" y="360" fill="black" font-family="sans-serif" font-size="12" text-anchor="middle">10</text><line x1="444.565" y1="340" x2="444.565" y2="346" stroke="black" stroke-width="1" stroke-linecap="round" fill="none"/><text x="444.565" y="360" fill="black" font-family="sans-serif" font-size="12" text-anchor="middle">12</text><line x1="64" y1="320.56" x2="70" y2="320.56" stroke="black" stroke-width="1" stroke-linecap="round" fill="none"/><text x="60" y="324.56" fill="black" font-family="sans-serif" font-size="12" text-anchor="end">-3</text><line x1="64" y1="275.374" x2="70" y2="275.374" stroke="black" stroke-width="1" stroke-linecap="round" fill="none"/><text x="60" y="279.374" fill="black" font-family="sans-serif" font-size="12" text-anchor="end">-2</text><line x1="64" y1="230.187" x2="70" y2="230.187" stroke="black" stroke-width="1" stroke-linecap="round" fill="none"/><text x="60" y="234.187" fill="black" font-family="sans-serif" font-size="12" text-anchor="end">-1</text><line x1="64" y1="185" x2="70" y2="185" stroke="black" stroke-width="1" stroke-linecap="round" fill="none"/><text x="60" y="189" fill="black" font-family="sans-serif" font-size="12" text-anchor="end">0</text><line x1="64" y1="139.813" x2="70" y2="139.813" stroke="black" stroke-width="1" stroke-linecap="round" fill="none"/><text x="60" y="143.813" fill="black" font-family="sans-serif" font-size="12" text-anchor="end">1</text><line x1="64" y1="94.6264" x2="70" y2="94.6264" stroke="black" stroke-width="1" stroke-linecap="round" fill="none"/><text x="60" y="98.6264" fill="black" font-family="sans-serif" font-size="12" text-anchor="end">2</text><line x1="64" y1="49.4396" x2="70" y2="49.4396" stroke="black" stroke-width="1" stroke-linecap="round" fill="none"/><text x="60" y="53.4396" fill="black" font-family="sans-serif" font-size="12" text-anchor="end">3</text><text x="275" y="21" fill="black" font-family="sans-serif" font-size="14" text-anchor="middle">Tan function (scaled)</text><polyline points="88.6364,185 96.243,183.815 103.85,182.455 111.456,180.624 119.063,177.546 126.67,169.775 134.276,44.0909 141.883,204.798 149.49,193.661 157.096,189.976 164.703,187.941 172.31,186.5 179.917,185.29 187.523,184.12 195.13,182.824 202.737,181.153 210.343,178.522 217.95,172.721 225.557,138.159 233.163,212.95 240.77,195.208 248.377,190.666 255.983,188.372 263.59,186.829 271.197,185.583 278.803,184.417 286.41,183.171 294.017,181.628 301.623,179.334 309.23,174.792 316.837,157.05 324.443,231.841 332.05,197.279 339.657,191.478 347.263,188.847 354.87,187.176 362.477,185.88 370.083,184.71 377.69,183.5 385.297,182.059 392.904,180.024 400.51,176.339 408.117,165.202 415.724,325.909 423.33,200.225 430.937,192.454 438.544,189.376 446.15,187.545 453.757,186.185 461.364,185" stroke="rgba(0,0,255,1)" stroke-width="2" fill="none" stroke-linecap="round" stroke-linejoin="round"/><rect x="340" y="40" width="130" height="34" stroke="black" stroke-width="1" fill="rgba(255,255,255,0.8)"/><line x1="350" y1="52" x2="370" y2="52" stroke="rgba(0,0,255,1)" stroke-width="3" stroke-linecap="round" fill="none"/><circle cx="360" cy="52" r="3" fill="rgba(0,0,255,1)"/><text x="380" y="56" fill="black" font-family="sans-serif" font-size="12" text-anchor="start">tan(x)</text><line x1="88.6364" y1="30" x2="88.6364" y2="340" stroke="rgba(0,0,0,0.1)" stroke-width="1" stroke-linecap="butt" fill="none"/><line x1="147.958" y1="30" x2="147.958" y2="340" stroke="rgba(0,0,0,0.1)" stroke-width="1" stroke-linecap="butt" fill="none"/><line x1="207.279" y1="30" x2="207.279" y2="340" stroke="rgba(0,0,0,0.1)" stroke-width="1" stroke-linecap="butt" fill="none"/><line x1="266.601" y1="30" x2="266.601" y2="340" stroke="rgba(0,0,0,0.1)" stroke-width="1" stroke-linecap="butt" fill="none"/><line x1="325.922" y1="30" x2="325.922" y2="340" stroke="rgba(0,0,0,0.1)" stroke-width="1" stroke-linecap="butt" fill="none"/><line x1="385.243" y1="30" x2="385.243" y2="340" stroke="rgba(0,0,0,0.1)" stroke-width="1" stroke-linecap="butt" fill="none"/><line x1="444.565" y1="30" x2="444.565" y2="340" stroke="rgba(0,0,0,0.1)" stroke-width="1" stroke-linecap="butt" fill="none"/><line x1="70" y1="320.56" x2="480" y2="320.56" stroke="rgba(0,0,0,0.1)" stroke-width="1" stroke-linecap="butt" fill="none"/><line x1="70" y1="275.374" x2="480" y2="275.374" stroke="rgba(0,0,0,0.1)" stroke-width="1" stroke-linecap="butt" fill="none"/><line x1="70" y1="230.187" x2="480" y2="230.187" stroke="rgba(0,0,0,0.1)" stroke-width="1" stroke-linecap="butt" fill="none"/><line x1="70" y1="185" x2="480" y2="185" stroke="rgba(0,0,0,0.1)" stroke-width="1" stroke-linecap="butt" fill="none"/><line x1="70" y1="139.813" x2="480" y2="139.813" stroke="rgba(0,0,0,0.1)" stroke-width="1" stroke-linecap="butt" fill="none"/><line x1="70" y1="94.6264" x2="480" y2="94.6264" stroke="rgba(0,0,0,0.1)" stroke-width="1" stroke-linecap="butt" fill="none"/><line x1="70" y1="49.4396" x2="480" y2="49.4396" stroke="rgba(0,0,0,0.1)" stroke-width="1" stroke-linecap="butt" fill="none"/></g><g transform="translate(500,0)"><rect x="70" y="30" width="410" height="310" stroke="black" stroke-width="1" fill="none"/><line x1="88.6364" y1="340" x2="88.6364" y2="346" stroke="black" stroke-width="1" stroke-linecap="round" fill="none"/><text x="88.6364" y="360" fill="black" font-family="sans-serif" font-size="12" text-anchor="middle">0</text><line x1="147.958" y1="340" x2="147.958" y2="346" stroke="black" stroke-width="1" stroke-linecap="round" fill="none"/><text x="147.958" y="360" fill="black" font-family="sans-serif" font-size="12" text-anchor="middle">2</text><line x1="207.279" y1="340" x2="207.279" y2="346" stroke="black" stroke-width="1" stroke-linecap="round" fill="none"/><text x="207.279" y="360" fill="black" font-family="sans-serif" font-size="12" text-anchor="middle">4</text><line x1="266.601" y1="340" x2="266.601" y2="346" stroke="black" stroke-width="1" stroke-linecap="round" fill="none"/><text x="266.601" y="360" fill="black" font-family="sans-serif" font-size="12" text-anchor="middle">6</text><line x1="325.922" y1="340" x2="325.922" y2="346" stroke="black" stroke-width="1" stroke-linecap="round" fill="none"/><text x="325.922" y="360" fill="black" font-family="sans-serif" font-size="12" text-anchor="middle">8</text><line x1="385.243" y1="340" x2="385.243" y2="346" stroke="black" stroke-width="1" stroke-linecap="round" fill="none"/><text x="385.243" y="360" fill="black" font-family="sans-serif" font-size="12" text-anchor="middle">10</text><line x1="444.565" y1="340" x2="444.565" y2="346" stroke="black" stroke-width="1" stroke-linecap="round" fill="none"/><text x="444.565" y="360" fill="black" font-family="sans-serif" font-size="12" text-anchor="middle">12</text><line x1="64" y1="320.717" x2="70" y2="320.717" stroke="black" stroke-width="1" stroke-linecap="round" fill="none"/><text x="60" y="324.717" fill="black" font-family="sans-serif" font-size="12" text-anchor="end">-0.6</text><line x1="64" y1="282.743" x2="70" y2="282.743" stroke="black" stroke-width="1" stroke-linecap="round" fill="none"/><text x="60" y="286.743" fill="black" font-family="sans-serif" font-size="12" text-anchor="end">-0.4</text><line x1="64" y1="244.769" x2="70" y2="244.769" stroke="black" stroke-width="1" stroke-linecap="round" fill="none"/><text x="60" y="248.769" fill="black" font-family="sans-serif" font-size="12" text-anchor="end">-0.2</text><line x1="64" y1="206.796" x2="70" y2="206.796" stroke="black" stroke-width="1" stroke-linecap="round" fill="none"/><text x="60" y="210.796" fill="black" font-family="sans-serif" font-size="12" text-anchor="end">0</text><line x1="64" y1="168.822" x2="70" y2="168.822" stroke="black" stroke-width="1" stroke-linecap="round" fill="none"/><text x="60" y="172.822" fill="black" font-family="sans-serif" font-size="12" text-anchor="end">0.2</text><line x1="64" y1="130.849" x2="70" y2="130.849" stroke="black" stroke-width="1" stroke-linecap="round" fill="none"/><text x="60" y="134.849" fill="black" font-family="sans-serif" font-size="12" text-anchor="end">0.4</text><line x1="64" y1="92.8754" x2="70" y2="92.8754" stroke="black" stroke-width="1" stroke-linecap="round" fill="none"/><text x="60" y="96.8754" fill="black" font-family="sans-serif" font-size="12" text-anchor="end">0.6</text><line x1="64" y1="54.9019" x2="70" y2="54.9019" stroke="black" stroke-width="1" stroke-linecap="round" fill="none"/><text x="60" y="58.9019" fill="black" font-family="sans-serif" font-size="12" text-anchor="end">0.8</text><text x="275" y="21" fill="black" font-family="sans-serif" font-size="14" text-anchor="middle">Damped oscillation</text><polyline points="88.6364,206.796 96.243,159.855 103.85,118.283 111.456,84.4897 119.063,60.262 126.67,46.6816 134.276,44.0909 141.883,52.1071 149.49,69.6838 157.096,95.211 164.703,126.647 172.31,161.673 179.917,197.854 187.523,232.801 195.13,264.326 202.737,290.571 210.343,310.108 217.95,322.016 225.557,325.909 233.163,321.937 240.77,310.749 248.377,293.426 255.983,271.391 263.59,246.298 271.197,219.916 278.803,194.008 286.41,170.219 294.017,149.974 301.623,134.401 309.23,124.269 316.837,119.957 324.443,121.453 332.05,128.37 339.657,139.991 347.263,155.333 354.87,173.222 362.477,192.379 370.083,211.506 377.69,229.373 385.297,244.894 392.904,257.185 400.51,265.617 408.117,269.839 415.724,269.791 423.33,265.688 430.937,257.998 438.544,247.396 446.15,234.709 453.757,220.859 461.364,206.796" stroke="rgba(255,0,0,1)" stroke-width="2" fill="none" stroke-linecap="round" stroke-linejoin="round"/><rect x="340" y="40" width="130" height="34" stroke="black" stroke-width="1" fill="rgba(255,255,255,0.8)"/><line x1="350" y1="52" x2="370" y2="52" stroke="rgba(255,0,0,1)" stroke-width="3" stroke-linecap="round" fill="none"/><circle cx="360" cy="52" r="3" fill="rgba(255,0,0,1)"/><text x="380" y="56" fill="black" font-family="sans-serif" font-size="12" text-anchor="start">exp(-x)*sin(x)</text><line x1="88.6364" y1="30" x2="88.6364" y2="340" stroke="rgba(0,0,0,0.1)" stroke-width="1" stroke-linecap="butt" fill="none"/><line x1="147.958" y1="30" x2="147.958" y2="340" stroke="rgba(0,0,0,0.1)" stroke-width="1" stroke-linecap="butt" fill="none"/><line x1="207.279" y1="30" x2="207.279" y2="340" stroke="rgba(0,0,0,0.1)" stroke-width="1" stroke-linecap="butt" fill="none"/><line x1="266.601" y1="30" x2="266.601" y2="340" stroke="rgba(0,0,0,0.1)" stroke-width="1" stroke-linecap="butt" fill="none"/><line x1="325.922" y1="30" x2="325.922" y2="340" stroke="rgba(0,0,0,0.1)" stroke-width="1" stroke-linecap="butt" fill="none"/><line x1="385.243" y1="30" x2="385.243" y2="340" stroke="rgba(0,0,0,0.1)" stroke-width="1" stroke-linecap="butt" fill="none"/><line x1="444.565" y1="30" x2="444.565" y2="340" stroke="rgba(0,0,0,0.1)" stroke-width="1" stroke-linecap="butt" fill="none"/><line x1="70" y1="320.717" x2="480" y2="320.717" stroke="rgba(0,0,0,0.1)" stroke-width="1" stroke-linecap="butt" fill="none"/><line x1="70" y1="282.743" x2="480" y2="282.743" stroke="rgba(0,0,0,0.1)" stroke-width="1" stroke-linecap="butt" fill="none"/><line x1="70" y1="244.769" x2="480" y2="244.769" stroke="rgba(0,0,0,0.1)" stroke-width="1" stroke-linecap="butt" fill="none"/><line x1="70" y1="206.796" x2="480" y2="206.796" stroke="rgba(0,0,0,0.1)" stroke-width="1" stroke-linecap="butt" fill="none"/><line x1="70" y1="168.822" x2="480" y2="168.822" stroke="rgba(0,0,0,0.1)" stroke-width="1" stroke-linecap="butt" fill="none"/><line x1="70" y1="130.849" x2="480" y2="130.849" stroke="rgba(0,0,0,0.1)" stroke-width="1" stroke-linecap="butt" fill="none"/><line x1="70" y1="92.8754" x2="480" y2="92.8754" stroke="rgba(0,0,0,0.1)" stroke-width="1" stroke-linecap="butt" fill="none"/><line x1="70" y1="54.9019" x2="480" y2="54.9019" stroke="rgba(0,0,0,0.1)" stroke-width="1" stroke-linecap="butt" fill="none"/></g><g transform="translate(0,400)"><rect x="70" y="30" width="410" height="310" stroke="black" stroke-width="1" fill="none"/><line x1="88.6364" y1="340" x2="88.6364" y2="346" stroke="black" stroke-width="1" stroke-linecap="round" fill="none"/><text x="88.6364" y="360" fill="black" font-family="sans-serif" font-size="12" text-anchor="middle">0</text><line x1="147.958" y1="340" x2="147.958" y2="346" stroke="black" stroke-width="1" stroke-linecap="round" fill="none"/><text x="147.958" y="360" fill="black" font-family="sans-serif" font-size="12" text-anchor="middle">2</text><line x1="207.279" y1="340" x2="207.279" y2="346" stroke="black" stroke-width="1" stroke-linecap="round" fill="none"/><text x="207.279" y="360" fill="black" font-family="sans-serif" font-size="12" text-anchor="middle">4</text><line x1="266.601" y1="340" x2="266.601" y2="346" stroke="black" stroke-width="1" stroke-linecap="round" fill="none"/><text x="266.601" y="360" fill="black" font-family="sans-serif" font-size="12" text-anchor="middle">6</text><line x1="325.922" y1="340" x2="325.922" y2="346" stroke="black" stroke-width="1" stroke-linecap="round" fill="none"/><text x="325.922" y="360" fill="black" font-family="sans-serif" font-size="12" text-anchor="middle">8</text><line x1="385.243" y1="340" x2="385.243" y2="346" stroke="black" stroke-width="1" stroke-linecap="round" fill="none"/><text x="385.243" y="360" fill="black" font-family="sans-serif" font-size="12" text-anchor="middle">10</text><line x1="444.565" y1="340" x2="444.565" y2="346" stroke="black" stroke-width="1" stroke-linecap="round" fill="none"/><text x="444.565" y="360" fill="black" font-family="sans-serif" font-size="12" text-anchor="middle">12</text><line x1="64" y1="325.909" x2="70" y2="325.909" stroke="black" stroke-width="1" stroke-linecap="round" fill="none"/><text x="60" y="329.909" fill="black" font-family="sans-serif" font-size="12" text-anchor="end">0</text><line x1="64" y1="286.159" x2="70" y2="286.159" stroke="black" stroke-width="1" stroke-linecap="round" fill="none"/><text x="60" y="290.159" fill="black" font-family="sans-serif" font-size="12" text-anchor="end">0.5</text><line x1="64" y1="246.41" x2="70" y2="246.41" stroke="black" stroke-width="1" stroke-linecap="round" fill="none"/><text x="60" y="250.41" fill="black" font-family="sans-serif" font-size="12" text-anchor="end">1</text><line x1="64" y1="206.66" x2="70" y2="206.66" stroke="black" stroke-width="1" stroke-linecap="round" fill="none"/><text x="60" y="210.66" fill="black" font-family="sans-serif" font-size="12" text-anchor="end">1.5</text><line x1="64" y1="166.91" x2="70" y2="166.91" stroke="black" stroke-width="1" stroke-linecap="round" fill="none"/><text x="60" y="170.91" fill="black" font-family="sans-serif" font-size="12" text-anchor="end">2</text><line x1="64" y1="127.16" x2="70" y2="127.16" stroke="black" stroke-width="1" stroke-linecap="round" fill="none"/><text x="60" y="131.16" fill="black" font-family="sans-serif" font-size="12" text-anchor="end">2.5</text><line x1="64" y1="87.4108" x2="70" y2="87.4108" stroke="black" stroke-width="1" stroke-linecap="round" fill="none"/><text x="60" y="91.4108" fill="black" font-family="sans-serif" font-size="12" text-anchor="end">3</text><line x1="64" y1="47.661" x2="70" y2="47.661" stroke="black" stroke-width="1" stroke-linecap="round" fill="none"/><text x="60" y="51.661" fill="black" font-family="sans-serif" font-size="12" text-anchor="end">3.5</text><text x="275" y="21" fill="black" font-family="sans-serif" font-size="14" text-anchor="middle">Square root (scatter)</text><circle cx="88.6364" cy="325.909" r="4" fill="rgba(0,255,0,1)"/><circle cx="96.243" cy="285.649" r="4" fill="rgba(0,255,0,1)"/><circle cx="103.85" cy="268.973" r="4" fill="rgba(0,255,0,1)"/><circle cx="111.456" cy="256.177" r="4" fill="rgba(0,255,0,1)"/><circle cx="119.063" cy="245.39" r="4" fill="rgba(0,255,0,1)"/><circle cx="126.67" cy="235.886" r="4" fill="rgba(0,255,0,1)"/><circle cx="134.276" cy="227.293" r="4" fill="rgba(0,255,0,1)"/><circle cx="141.883" cy="219.392" r="4" fill="rgba(0,255,0,1)"/><circle cx="149.49" cy="212.037" r="4" fill="rgba(0,255,0,1)"/><circle cx="157.096" cy="205.13" r="4" fill="rgba(0,255,0,1)"/><circle cx="164.703" cy="198.597" r="4" fill="rgba(0,255,0,1)"/><circle cx="172.31" cy="192.383" r="4" fill="rgba(0,255,0,1)"/><circle cx="179.917" cy="186.445" r="4" fill="rgba(0,255,0,1)"/><circle cx="187.523" cy="180.751" r="4" fill="rgba(0,255,0,1)"/><circle cx="195.13" cy="175.271" r="4" fill="rgba(0,255,0,1)"/><circle cx="202.737" cy="169.984" r="4" fill="rgba(0,255,0,1)"/><circle cx="210.343" cy="164.87" r="4" fill="rgba(0,255,0,1)"/><circle cx="217.95" cy="159.914" r="4" fill="rgba(0,255,0,1)"/><circle cx="225.557" cy="155.101" r="4" fill="rgba(0,255,0,1)"/><circle cx="233.163" cy="150.421" r="4" fill="rgba(0,255,0,1)"/><circle cx="240.77" cy="145.862" r="4" fill="rgba(0,255,0,1)"/><circle cx="248.377" cy="141.416" r="4" fill="rgba(0,255,0,1)"/><circle cx="255.983" cy="137.074" r="4" fill="rgba(0,255,0,1)"/><circle cx="263.59" cy="132.83" r="4" fill="rgba(0,255,0,1)"/><circle cx="271.197" cy="128.677" r="4" fill="rgba(0,255,0,1)"/><circle cx="278.803" cy="124.61" r="4" fill="rgba(0,255,0,1)"/><circle cx="286.41" cy="120.624" r="4" fill="rgba(0,255,0,1)"/><circle cx="294.017" cy="116.713" r="4" fill="rgba(0,255,0,1)"/><circle cx="301.623" cy="112.875" r="4" fill="rgba(0,255,0,1)"/><circle cx="309.23" cy="109.104" r="4" fill="rgba(0,255,0,1)"/><circle cx="316.837" cy="105.397" r="4" fill="rgba(0,255,0,1)"/><circle cx="324.443" cy="101.752" r="4" fill="rgba(0,255,0,1)"/><circle cx="332.05" cy="98.1656" r="4" fill="rgba(0,255,0,1)"/><circle cx="339.657" cy="94.6345" r="4" fill="rgba(0,255,0,1)"/><circle cx="347.263" cy="91.1565" r="4" fill="rgba(0,255,0,1)"/><circle cx="354.87" cy="87.7293" r="4" fill="rgba(0,255,0,1)"/><circle cx="362.477" cy="84.3506" r="4" fill="rgba(0,255,0,1)"/><circle cx="370.083" cy="81.0187" r="4" fill="rgba(0,255,0,1)"/><circle cx="377.69" cy="77.7314" r="4" fill="rgba(0,255,0,1)"/><circle cx="385.297" cy="74.4871" r="4" fill="rgba(0,255,0,1)"/><circle cx="392.904" cy="71.2841" r="4" fill="rgba(0,255,0,1)"/><circle cx="400.51" cy="68.121" r="4" fill="rgba(0,255,0,1)"/><circle cx="408.117" cy="64.9962" r="4" fill="rgba(0,255,0,1)"/><circle cx="415.724" cy="61.9083" r="4" fill="rgba(0,255,0,1)"/><circle cx="423.33" cy="58.8562" r="4" fill="rgba(0,255,0,1)"/><circle cx="430.937" cy="55.8385" r="4" fill="rgba(0,255,0,1)"/><circle cx="438.544" cy="52.8542" r="4" fill="rgba(0,255,0,1)"/><circle cx="446.15" cy="49.9022" r="4" fill="rgba(0,255,0,1)"/><circle cx="453.757" cy="46.9814" r="4" fill="rgba(0,255,0,1)"/><circle cx="461.364" cy="44.0909" r="4" fill="rgba(0,255,0,1)"/><rect x="340" y="40" width="130" height="34" stroke="black" stroke-width="1" fill="rgba(255,255,255,0.8)"/><line x1="350" y1="52" x2="370" y2="52" stroke="rgba(0,255,0,1)" stroke-width="3" stroke-linecap="round" fill="none"/><circle cx="360" cy="52" r="3" fill="rgba(0,255,0,1)"/><text x="380" y="56" fill="black" font-family="sans-serif" font-size="12" text-anchor="start">sqrt(x)</text><line x1="88.6364" y1="30" x2="88.6364" y2="340" stroke="rgba(0,0,0,0.1)" stroke-width="1" stroke-linecap="butt" fill="none"/><line x1="147.958" y1="30" x2="147.958" y2="340" stroke="rgba(0,0,0,0.1)" stroke-width="1" stroke-linecap="butt" fill="none"/><line x1="207.279" y1="30" x2="207.279" y2="340" stroke="rgba(0,0,0,0.1)" stroke-width="1" stroke-linecap="butt" fill="none"/><line x1="266.601" y1="30" x2="266.601" y2="340" stroke="rgba(0,0,0,0.1)" stroke-width="1" stroke-linecap="butt" fill="none"/><line x1="325.922" y1="30" x2="325.922" y2="340" stroke="rgba(0,0,0,0.1)" stroke-width="1" stroke-linecap="butt" fill="none"/><line x1="385.243" y1="30" x2="385.243" y2="340" stroke="rgba(0,0,0,0.1)" stroke-width="1" stroke-linecap="butt" fill="none"/><line x1="444.565" y1="30" x2="444.565" y2="340" stroke="rgba(0,0,0,0.1)" stroke-width="1" stroke-linecap="butt" fill="none"/><line x1="70" y1="325.909" x2="480" y2="325.909" stroke="rgba(0,0,0,0.1)" stroke-width="1" stroke-linecap="butt" fill="none"/><line x1="70" y1="286.159" x2="480" y2="286.159" stroke="rgba(0,0,0,0.1)" stroke-width="1" stroke-linecap="butt" fill="none"/><line x1="70" y1="246.41" x2="480" y2="246.41" stroke="rgba(0,0,0,0.1)" stroke-width="1" stroke-linecap="butt" fill="none"/><line x1="70" y1="206.66" x2="480" y2="206.66" stroke="rgba(0,0,0,0.1)" stroke-width="1" stroke-linecap="butt" fill="none"/><line x1="70" y1="166.91" x2="480" y2="166.91" stroke="rgba(0,0,0,0.1)" stroke-width="1" stroke-linecap="butt" fill="none"/><line x1="70" y1="127.16" x2="480" y2="127.16" stroke="rgba(0,0,0,0.1)" stroke-width="1" stroke-linecap="butt" fill="none"/><line x1="70" y1="87.4108" x2="480" y2="87.4108" stroke="rgba(0,0,0,0.1)" stroke-width="1" stroke-linecap="butt" fill="none"/><line x1="70" y1="47.661" x2="480" y2="47.661" stroke="rgba(0,0,0,0.1)" stroke-width="1" stroke-linecap="butt" fill="none"/></g><g transform="translate(500,400)"><rect x="70" y="30" width="410" height="310" stroke="black" stroke-width="1" fill="none"/><line x1="88.6364" y1="340" x2="88.6364" y2="346" stroke="black" stroke-width="1" stroke-linecap="round" fill="none"/><text x="88.6364" y="360" fill="black" font-family="sans-serif" font-size="12" text-anchor="middle">0</text><line x1="147.958" y1="340" x2="147.958" y2="346" stroke="black" stroke-width="1" stroke-linecap="round" fill="none"/><text x="147.958" y="360" fill="black" font-family="sans-serif" font-size="12" text-anchor="middle">2</text><line x1="207.279" y1="340" x2="207.279" y2="346" stroke="black" stroke-width="1" stroke-linecap="round" fill="none"/><text x="207.279" y="360" fill="black" font-family="sans-serif" font-size="12" text-anchor="middle">4</text><line x1="266.601" y1="340" x2="266.601" y2="346" stroke="black" stroke-width="1" stroke-linecap="round" fill="none"/><text x="266.601" y="360" fill="black" font-family="sans-serif" font-size="12" text-anchor="middle">6</text><line x1="325.922" y1="340" x2="325.922" y2="346" stroke="black" stroke-width="1" stroke-linecap="round" fill="none"/><text x="325.922" y="360" fill="black" font-family="sans-serif" font-size="12" text-anchor="middle">8</text><line x1="385.243" y1="340" x2="385.243" y2="346" stroke="black" stroke-width="1" stroke-linecap="round" fill="none"/><text x="385.243" y="360" fill="black" font-family="sans-serif" font-size="12" text-anchor="middle">10</text><line x1="444.565" y1="340" x2="444.565" y2="346" stroke="black" stroke-width="1" stroke-linecap="round" fill="none"/><text x="444.565" y="360" fill="black" font-family="sans-serif" font-size="12" text-anchor="middle">12</text><line x1="64" y1="301.369" x2="70" y2="301.369" stroke="black" stroke-width="1" stroke-linecap="round" fill="none"/><text x="60" y="305.369" fill="black" font-family="sans-serif" font-size="12" text-anchor="end">0.8</text><line x1="64" y1="252.129" x2="70" y2="252.129" stroke="black" stroke-width="1" stroke-linecap="round" fill="none"/><text x="60" y="256.129" fill="black" font-family="sans-serif" font-size="12" text-anchor="end">0.9</text><line x1="64" y1="202.889" x2="70" y2="202.889" stroke="black" stroke-width="1" stroke-linecap="round" fill="none"/><text x="60" y="206.889" fill="black" font-family="sans-serif" font-size="12" text-anchor="end">1</text><line x1="64" y1="153.649" x2="70" y2="153.649" stroke="black" stroke-width="1" stroke-linecap="round" fill="none"/><text x="60" y="157.649" fill="black" font-family="sans-serif" font-size="12" text-anchor="end">1.1</text><line x1="64" y1="104.41" x2="70" y2="104.41" stroke="black" stroke-width="1" stroke-linecap="round" fill="none"/><text x="60" y="108.41" fill="black" font-family="sans-serif" font-size="12" text-anchor="end">1.2</text><line x1="64" y1="55.1697" x2="70" y2="55.1697" stroke="black" stroke-width="1" stroke-linecap="round" fill="none"/><text x="60" y="59.1697" fill="black" font-family="sans-serif" font-size="12" text-anchor="end">1.3</text><text x="275" y="21" fill="black" font-family="sans-serif" font-size="14" text-anchor="middle">Polynomial</text><polyline points="88.6364,202.889 96.243,215.193 103.85,226.85 111.456,237.858 119.063,248.219 126.67,257.932 134.276,266.998 141.883,275.416 149.49,283.186 157.096,290.308 164.703,296.783 172.31,302.61 179.917,307.789 187.523,312.321 195.13,316.205 202.737,319.441 210.343,322.03 217.95,323.971 225.557,325.264 233.163,325.909 240.77,325.907 248.377,325.257 255.983,323.959 263.59,322.014 271.197,319.421 278.803,316.18 286.41,312.291 294.017,307.755 301.623,302.571 309.23,296.74 316.837,290.26 324.443,283.133 332.05,275.359 339.657,266.936 347.263,257.866 354.87,248.149 362.477,237.783 370.083,226.77 377.69,215.109 385.297,202.8 392.904,189.844 400.51,176.24 408.117,161.988 415.724,147.089 423.33,131.542 430.937,115.347 438.544,98.5046 446.15,81.0144 453.757,62.8765 461.364,44.0909" stroke="rgba(0,0,0,1)" stroke-width="2" fill="none" stroke-linecap="round" stroke-linejoin="round"/><rect x="340" y="40" width="130" height="34" stroke="black" stroke-width="1" fill="rgba(255,255,255,0.8)"/><line x1="350" y1="52" x2="370" y2="52" stroke="rgba(0,0,0,1)" stroke-width="3" stroke-linecap="round" fill="none"/><circle cx="360" cy="52" r="3" fill="rgba(0,0,0,1)"/><text x="380" y="56" fill="black" font-family="sans-serif" font-size="12" text-anchor="start">quadratic</text><line x1="88.6364" y1="30" x2="88.6364" y2="340" stroke="rgba(0,0,0,0.1)" stroke-width="1" stroke-linecap="butt" fill="none"/><line x1="147.958" y1="30" x2="147.958" y2="340" stroke="rgba(0,0,0,0.1)" stroke-width="1" stroke-linecap="butt" fill="none"/><line x1="207.279" y1="30" x2="207.279" y2="340" stroke="rgba(0,0,0,0.1)" stroke-width="1" stroke-linecap="butt" fill="none"/><line x1="266.601" y1="30" x2="266.601" y2="340" stroke="rgba(0,0,0,0.1)" stroke-width="1" stroke-linecap="butt" fill="none"/><line x1="325.922" y1="30" x2="325.922" y2="340" stroke="rgba(0,0,0,0.1)" stroke-width="1" stroke-linecap="butt" fill="none"/><line x1="385.243" y1="30" x2="385.243" y2="340" stroke="rgba(0,0,0,0.1)" stroke-width="1" stroke-linecap="butt" fill="none"/><line x1="444.565" y1="30" x2="444.565" y2="340" stroke="rgba(0,0,0,0.1)" stroke-width="1" stroke-linecap="butt" fill="none"/><line x1="70" y1="301.369" x2="480" y2="301.369" stroke="rgba(0,0,0,0.1)" stroke-width="1" stroke-linecap="butt" fill="none"/><line x1="70" y1="252.129" x2="480" y2="252.129" stroke="rgba(0,0,0,0.1)" stroke-width="1" stroke-linecap="butt" fill="none"/><line x1="70" y1="202.889" x2="480" y2="202.889" stroke="rgba(0,0,0,0.1)" stroke-width="1" stroke-linecap="butt" fill="none"/><line x1="70" y1="153.649" x2="480" y2="153.649" stroke="rgba(0,0,0,0.1)" stroke-width="1" stroke-linecap="butt" fill="none"/><line x1="70" y1="104.41" x2="480" y2="104.41" stroke="rgba(0,0,0,0.1)" stroke-width="1" stroke-linecap="butt" fill="none"/><line x1="70" y1="55.1697" x2="480" y2="55.1697" stroke="rgba(0,0,0,0.1)" stroke-width="1" stroke-linecap="butt" fill="none"/></g></svg>