<svg xmlns="http://www.w3.org/2000/svg" width="1000" height="700" viewBox="0 0 1000 700"><rect x="0" y="0" width="1000" height="700" fill="white"/><g transform="translate(0,0)"><rect x="70" y="30" width="910" height="610" stroke="black" stroke-width="1" fill="none"/><line x1="111.364" y1="640" x2="111.364" y2="646" stroke="black" stroke-width="1" stroke-linecap="round" fill="none"/><text x="111.364" y="660" fill="black" font-family="sans-serif" font-size="12" text-anchor="middle">0</text><line x1="243.028" y1="640" x2="243.028" y2="646" stroke="black" stroke-width="1" stroke-linecap="round" fill="none"/><text x="243.028" y="660" fill="black" font-family="sans-serif" font-size="12" text-anchor="middle">1</text><line x1="374.693" y1="640" x2="374.693" y2="646" stroke="black" stroke-width="1" stroke-linecap="round" fill="none"/><text x="374.693" y="660" fill="black" font-family="sans-serif" font-size="12" text-anchor="middle">2</text><line x1="506.357" y1="640" x2="506.357" y2="646" stroke="black" stroke-width="1" stroke-linecap="round" fill="none"/><text x="506.357" y="660" fill="black" font-family="sans-serif" font-size="12" text-anchor="middle">3</text><line x1="638.022" y1="640" x2="638.022" y2="646" stroke="black" stroke-width="1" stroke-linecap="round" fill="none"/><text x="638.022" y="660" fill="black" font-family="sans-serif" font-size="12" text-anchor="middle">4</text><line x1="769.686" y1="640" x2="769.686" y2="646" stroke="black" stroke-width="1" stroke-linecap="round" fill="none"/><text x="769.686" y="660" fill="black" font-family="sans-serif" font-size="12" text-anchor="middle">5</text><line x1="901.351" y1="640" x2="901.351" y2="646" stroke="black" stroke-width="1" stroke-linecap="round" fill="none"/><text x="901.351" y="660" fill="black" font-family="sans-serif" font-size="12" text-anchor="middle">6</text><line x1="64" y1="612.273" x2="70" y2="612.273" stroke="black" stroke-width="1" stroke-linecap="round" fill="none"/><text x="60" y="616.273" fill="black" font-family="sans-serif" font-size="12" text-anchor="end">-1</text><line x1="64" y1="473.636" x2="70" y2="473.636" stroke="black" stroke-width="1" stroke-linecap="round" fill="none"/><text x="60" y="477.636" fill="black" font-family="sans-serif" font-size="12" text-anchor="end">-0.5</text><line x1="64" y1="335" x2="70" y2="335" stroke="black" stroke-width="1" stroke-linecap="round" fill="none"/><text x="60" y="339" fill="black" font-family="sans-serif" font-size="12" text-anchor="end">0</text><line x1="64" y1="196.364" x2="70" y2="196.364" stroke="black" stroke-width="1" stroke-linecap="round" fill="none"/><text x="60" y="200.364" fill="black" font-family="sans-serif" font-size="12" text-anchor="end">0.5</text><line x1="64" y1="57.7273" x2="70" y2="57.7273" stroke="black" stroke-width="1" stroke-linecap="round" fill="none"/><text x="60" y="61.7273" fill="black" font-family="sans-serif" font-size="12" text-anchor="end">1</text><text x="525" y="21" fill="black" font-family="sans-serif" font-size="14" text-anchor="middle">NumBits Integration: Both approaches produce identical results</text><text x="525" y="680" fill="black" font-family="sans-serif" font-size="13" text-anchor="middle">x (radians)</text><text x="20" y="335" fill="black" font-family="sans-serif" font-size="13" text-anchor="middle" transform="rotate(-90 20 335)">f(x)</text><polyline points="111.364,335 119.636,317.59 127.909,300.249 136.182,283.044 144.455,266.045 152.727,249.318 161,232.929 169.273,216.943 177.545,201.423 185.818,186.43 194.091,172.023 202.364,158.26 210.636,145.194 218.909,132.877 227.182,121.358 235.455,110.682 243.727,100.891 252,92.0241 260.273,84.1161 268.545,77.1983 276.818,71.298 285.091,66.4383 293.364,62.6385 301.636,59.9137 309.909,58.2744 318.182,57.7273 326.455,58.2744 334.727,59.9137 343,62.6385 351.273,66.4383 359.545,71.298 367.818,77.1983 376.091,84.1161 384.364,92.0241 392.636,100.891 400.909,110.682 409.182,121.358 417.455,132.877 425.727,145.194 434,158.26 442.273,172.023 450.545,186.43 458.818,201.423 467.091,216.943 475.364,232.929 483.636,249.318 491.909,266.045 500.182,283.044 508.455,300.249 516.727,317.59 525,335 533.273,352.41 541.545,369.751 549.818,386.956 558.091,403.955 566.364,420.682 574.636,437.071 582.909,453.057 591.182,468.577 599.455,483.57 607.727,497.977 616,511.74 624.273,524.806 632.545,537.123 640.818,548.642 649.091,559.318 657.364,569.109 665.636,577.976 673.909,585.884 682.182,592.802 690.455,598.702 698.727,603.562 707,607.361 715.273,610.086 723.545,611.726 731.818,612.273 740.091,611.726 748.364,610.086 756.636,607.361 764.909,603.562 773.182,598.702 781.455,592.802 789.727,585.884 798,577.976 806.273,569.109 814.545,559.318 822.818,548.642 831.091,537.123 839.364,524.806 847.636,511.74 855.909,497.977 864.182,483.57 872.455,468.577 880.727,453.057 889,437.071 897.273,420.682 905.545,403.955 913.818,386.956 922.091,369.751 930.364,352.41 938.636,335" stroke="rgba(0,0,255,1)" stroke-width="1.5" fill="none" stroke-linecap="round" stroke-linejoin="round"/><polyline points="111.364,335 119.636,317.59 127.909,300.249 136.182,283.044 144.455,266.045 152.727,249.318 161,232.929 169.273,216.943 177.545,201.423 185.818,186.43 194.091,172.023 202.364,158.26 210.636,145.194 218.909,132.877 227.182,121.358 235.455,110.682 243.727,100.891 252,92.0241 260.273,84.1161 268.545,77.1983 276.818,71.298 285.091,66.4383 293.364,62.6385 301.636,59.9137 309.909,58.2744 318.182,57.7273 326.455,58.2744 334.727,59.9137 343,62.6385 351.273,66.4383 359.545,71.298 367.818,77.1983 376.091,84.1161 384.364,92.0241 392.636,100.891 400.909,110.682 409.182,121.358 417.455,132.877 425.727,145.194 434,158.26 442.273,172.023 450.545,186.43 458.818,201.423 467.091,216.943 475.364,232.929 483.636,249.318 491.909,266.045 500.182,283.044 508.455,300.249 516.727,317.59 525,335 533.273,352.41 541.545,369.751 549.818,386.956 558.091,403.955 566.364,420.682 574.636,437.071 582.909,453.057 591.182,468.577 599.455,483.57 607.727,497.977 616,511.74 624.273,524.806 632.545,537.123 640.818,548.642 649.091,559.318 657.364,569.109 665.636,577.976 673.909,585.884 682.182,592.802 690.455,598.702 698.727,603.562 707,607.361 715.273,610.086 723.545,611.726 731.818,612.273 740.091,611.726 748.364,610.086 756.636,607.361 764.909,603.562 773.182,598.702 781.455,592.802 789.727,585.884 798,577.976 806.273,569.109 814.545,559.318 822.818,548.642 831.091,537.123 839.364,524.806 847.636,511.74 855.909,497.977 864.182,483.57 872.455,468.577 880.727,453.057 889,437.071 897.273,420.682 905.545,403.955 913.818,386.956 922.091,369.751 930.364,352.41 938.636,335" stroke="rgba(0,0,255,1)" stroke-width="1.5" fill="none" stroke-linecap="round" stroke-linejoin="round"/><polyline points="111.364,57.7273 119.636,58.2744 127.909,59.9137 136.182,62.6385 144.455,66.4383 152.727,71.298 161,77.1983 169.273,84.1161 177.545,92.0241 185.818,100.891 194.091,110.682 202.364,121.358 210.636,132.877 218.909,145.194 227.182,158.26 235.455,172.023 243.727,186.43 252,201.423 260.273,216.943 268.545,232.929 276.818,249.318 285.091,266.045 293.364,283.044 301.636,300.249 309.909,317.59 318.182,335 326.455,352.41 334.727,369.751 343,386.956 351.273,403.955 359.545,420.682 367.818,437.071 376.091,453.057 384.364,468.577 392.636,483.57 400.909,497.977 409.182,511.74 417.455,524.806 425.727,537.123 434,548.642 442.273,559.318 450.545,569.109 458.818,577.976 467.091,585.884 475.364,592.802 483.636,598.702 491.909,603.562 500.182,607.361 508.455,610.086 516.727,611.726 525,612.273 533.273,611.726 541.545,610.086 549.818,607.361 558.091,603.562 566.364,598.702 574.636,592.802 582.909,585.884 591.182,577.976 599.455,569.109 607.727,559.318 616,548.642 624.273,537.123 632.545,524.806 640.818,511.74 649.091,497.977 657.364,483.57 665.636,468.577 673.909,453.057 682.182,437.071 690.455,420.682 698.727,403.955 707,386.956 715.273,369.751 723.545,352.41 731.818,335 740.091,317.59 748.364,300.249 756.636,283.044 764.909,266.045 773.182,249.318 781.455,232.929 789.727,216.943 798,201.423 806.273,186.43 814.545,172.023 822.818,158.26 831.091,145.194 839.364,132.877 847.636,121.358 855.909,110.682 864.182,100.891 872.455,92.0241 880.727,84.1161 889,77.1983 897.273,71.298 905.545,66.4383 913.818,62.6385 922.091,59.9137 930.364,58.2744 938.636,57.7273" stroke="rgba(255,0,0,1)" stroke-width="1.5" fill="none" stroke-linecap="round" stroke-linejoin="round"/><polyline points="111.364,57.7273 119.636,58.2744 127.909,59.9137 136.182,62.6385 144.455,66.4383 152.727,71.298 161,77.1983 169.273,84.1161 177.545,92.0241 185.818,100.891 194.091,110.682 202.364,121.358 210.636,132.877 218.909,145.194 227.182,158.26 235.455,172.023 243.727,186.43 252,201.423 260.273,216.943 268.545,232.929 276.818,249.318 285.091,266.045 293.364,283.044 301.636,300.249 309.909,317.59 318.182,335 326.455,352.41 334.727,369.751 343,386.956 351.273,403.955 359.545,420.682 367.818,437.071 376.091,453.057 384.364,468.577 392.636,483.57 400.909,497.977 409.182,511.74 417.455,524.806 425.727,537.123 434,548.642 442.273,559.318 450.545,569.109 458.818,577.976 467.091,585.884 475.364,592.802 483.636,598.702 491.909,603.562 500.182,607.361 508.455,610.086 516.727,611.726 525,612.273 533.273,611.726 541.545,610.086 549.818,607.361 558.091,603.562 566.364,598.702 574.636,592.802 582.909,585.884 591.182,577.976 599.455,569.109 607.727,559.318 616,548.642 624.273,537.123 632.545,524.806 640.818,511.74 649.091,497.977 657.364,483.57 665.636,468.577 673.909,453.057 682.182,437.071 690.455,420.682 698.727,403.955 707,386.956 715.273,369.751 723.545,352.41 731.818,335 740.091,317.59 748.364,300.249 756.636,283.044 764.909,266.045 773.182,249.318 781.455,232.929 789.727,216.943 798,201.423 806.273,186.43 814.545,172.023 822.818,158.26 831.091,145.194 839.364,132.877 847.636,121.358 855.909,110.682 864.182,100.891 872.455,92.0241 880.727,84.1161 889,77.1983 897.273,71.298 905.545,66.4383 913.818,62.6385 922.091,59.9137 930.364,58.2744 938.636,57.7273" stroke="rgba(255,0,0,1)" stroke-width="1.5" fill="none" stroke-linecap="round" stroke-linejoin="round"/><circle cx="111.364" cy="335" r="8" fill="rgba(0,255,0,1)"/><circle cx="318.077" cy="57.7273" r="8" fill="rgba(0,255,0,1)"/><circle cx="524.79" cy="335" r="8" fill="rgba(0,255,0,1)"/><circle cx="731.504" cy="612.273" r="8" fill="rgba(0,255,0,1)"/><circle cx="938.217" cy="335" r="8" fill="rgba(0,255,0,1)"/><rect x="840" y="40" width="130" height="106" stroke="black" stroke-width="1" fill="rgba(255,255,255,0.8)"/><line x1="850" y1="52" x2="870" y2="52" stroke="rgba(0,0,255,1)" stroke-width="3" stroke-linecap="round" fill="none"/><circle cx="860" cy="52" r="3" fill="rgba(0,0,255,1)"/><text x="880" y="56" fill="black" font-family="sans-serif" font-size="12" text-anchor="start">sin (vector)</text><line x1="850" y1="70" x2="870" y2="70" stroke="rgba(0,0,255,1)" stroke-width="3" stroke-linecap="round" fill="none"/><circle cx="860" cy="70" r="3" fill="rgba(0,0,255,1)"/><text x="880" y="74" fill="black" font-family="sans-serif" font-size="12" text-anchor="start">sin (NumBits)</text><line x1="850" y1="88" x2="870" y2="88" stroke="rgba(255,0,0,1)" stroke-width="3" stroke-linecap="round" fill="none"/><circle cx="860" cy="88" r="3" fill="rgba(255,0,0,1)"/><text x="880" y="92" fill="black" font-family="sans-serif" font-size="12" text-anchor="start">cos (vector)</text><line x1="850" y1="106" x2="870" y2="106" stroke="rgba(255,0,0,1)" stroke-width="3" stroke-linecap="round" fill="none"/><circle cx="860" cy="106" r="3" fill="rgba(255,0,0,1)"/><text x="880" y="110" fill="black" font-family="sans-serif" font-size="12" text-anchor="start">cos (NumBits)</text><line x1="850" y1="124" x2="870" y2="124" stroke="rgba(0,255,0,1)" stroke-width="3" stroke-linecap="round" fill="none"/><circle cx="860" cy="124" r="3" fill="rgba(0,255,0,1)"/><text x="880" y="128" fill="black" font-family="sans-serif" font-size="12" text-anchor="start">key points</text><line x1="111.364" y1="30" x2="111.364" y2="640" stroke="rgba(0,0,0,0.1)" stroke-width="1" stroke-linecap="butt" fill="none"/><line x1="243.028" y1="30" x2="243.028" y2="640" stroke="rgba(0,0,0,0.1)" stroke-width="1" stroke-linecap="butt" fill="none"/><line x1="374.693" y1="30" x2="374.693" y2="640" stroke="rgba(0,0,0,0.1)" stroke-width="1" stroke-linecap="butt" fill="none"/><line x1="506.357" y1="30" x2="506.357" y2="640" stroke="rgba(0,0,0,0.1)" stroke-width="1" stroke-linecap="butt" fill="none"/><line x1="638.022" y1="30" x2="638.022" y2="640" stroke="rgba(0,0,0,0.1)" stroke-width="1" stroke-linecap="butt" fill="none"/><line x1="769.686" y1="30" x2="769.686" y2="640" stroke="rgba(0,0,0,0.1)" stroke-width="1" stroke-linecap="butt" fill="none"/><line x1="901.351" y1="30" x2="901.351" y2="640" stroke="rgba(0,0,0,0.1)" stroke-width="1" stroke-linecap="butt" fill="none"/><line x1="70" y1="612.273" x2="980" y2="612.273" stroke="rgba(0,0,0,0.1)" stroke-width="1" stroke-linecap="butt" fill="none"/><line x1="70" y1="473.636" x2="980" y2="473.636" stroke="rgba(0,0,0,0.1)" stroke-width="1" stroke-linecap="butt" fill="none"/><line x1="70" y1="335" x2="980" y2="335" stroke="rgba(0,0,0,0.1)" stroke-width="1" stroke-linecap="butt" fill="none"/><line x1="70" y1="196.364" x2="980" y2="196.364" stroke="rgba(0,0,0,0.1)" stroke-width="1" stroke-linecap="butt" fill="none"/><line x1="70" y1="57.7273" x2="980" y2="57.7273" stroke="rgba(0,0,0,0.1)" stroke-width="1" stroke-linecap="butt" fill="none"/></g></svg>